<svg role="presentation" aria-label="menu-toggle" viewBox="0 0 512 512" xmlns="http://www.w3.org/2000/svg">
    <path class="hidden js-menu-close"
        d="M301.827 256.007L440.288 117.546L468.841 88.993C473.053 84.7809 473.053 77.9362 468.841 73.7241L438.289 43.1726C434.077 38.9605 427.233 38.9605 423.02 43.1726L256.007 210.186L88.993 43.1591C84.7809 38.947 77.9362 38.947 73.7241 43.1591L43.1591 73.7106C38.947 77.9227 38.947 84.7674 43.1591 88.9795L210.186 256.007L43.1591 423.02C38.947 427.233 38.947 434.077 43.1591 438.289L73.7106 468.841C77.9227 473.053 84.7674 473.053 88.9795 468.841L256.007 301.827L394.467 440.288L423.02 468.841C427.233 473.053 434.077 473.053 438.289 468.841L468.841 438.289C473.053 434.077 473.053 427.233 468.841 423.02L301.827 256.007Z" />
    <path class="js-menu-show"
        d="M466.214 118.714H45.7857C44.2512 118.714 42.7796 118.105 41.6946 117.02C40.6096 115.935 40 114.463 40 112.929V89.7857C40 88.2512 40.6096 86.7796 41.6946 85.6946C42.7796 84.6096 44.2512 84 45.7857 84H466.214C467.749 84 469.22 84.6096 470.305 85.6946C471.39 86.7796 472 88.2512 472 89.7857V112.929C472 114.463 471.39 115.935 470.305 117.02C469.22 118.105 467.749 118.714 466.214 118.714V118.714ZM466.214 273H45.7857C44.2512 273 42.7796 272.39 41.6946 271.305C40.6096 270.22 40 268.749 40 267.214V244.071C40 242.537 40.6096 241.065 41.6946 239.98C42.7796 238.895 44.2512 238.286 45.7857 238.286H466.214C467.749 238.286 469.22 238.895 470.305 239.98C471.39 241.065 472 242.537 472 244.071V267.214C472 268.749 471.39 270.22 470.305 271.305C469.22 272.39 467.749 273 466.214 273V273ZM466.214 427.286H45.7857C44.2512 427.286 42.7796 426.676 41.6946 425.591C40.6096 424.506 40 423.034 40 421.5V398.357C40 396.823 40.6096 395.351 41.6946 394.266C42.7796 393.181 44.2512 392.571 45.7857 392.571H466.214C467.749 392.571 469.22 393.181 470.305 394.266C471.39 395.351 472 396.823 472 398.357V421.5C472 423.034 471.39 424.506 470.305 425.591C469.22 426.676 467.749 427.286 466.214 427.286V427.286Z" />
</svg>
