<svg role="presentation" viewBox="0 0 512 512" xmlns="http://www.w3.org/2000/svg">
    <path d="M301.827 256.007L440.288 117.546L468.841 88.993C473.053 84.7809 473.053 77.9362 468.841 73.7241L438.289 43.1726C434.077 38.9605 427.233 38.9605 423.02 43.1726L256.007 210.186L88.993 43.1591C84.7809 38.947 77.9362 38.947 73.7241 43.1591L43.1591 73.7106C38.947 77.9227 38.947 84.7674 43.1591 88.9795L210.186 256.007L43.1591 423.02C38.947 427.233 38.947 434.077 43.1591 438.289L73.7106 468.841C77.9227 473.053 84.7674 473.053 88.9795 468.841L256.007 301.827L394.467 440.288L423.02 468.841C427.233 473.053 434.077 473.053 438.289 468.841L468.841 438.289C473.053 434.077 473.053 427.233 468.841 423.02L301.827 256.007Z" />
</svg>